<svg xmlns="http://www.w3.org/2000/svg" viewBox="0 0 246.71 179.76">
    <defs>
        <style>
            .cls-1,.cls-3{fill:#fbb03b;}.cls-1{stroke:#fbb03b;stroke-miterlimit:10;stroke-width:3.55px;}.cls-2{fill:#1f5886;}
        </style>
    </defs>
    <g id="图层_2" data-name="图层 2">
        <g id="图层_1-2" data-name="图层 1">
            <circle class="cls-1" cx="37.07" cy="156.33" r="12.44"/>
            <circle class="cls-1" cx="147.21" cy="10.66" r="8.88"/>
            <circle class="cls-1" cx="163.2" cy="51.52" r="7.11"/>
            <circle class="cls-1" cx="77.93" cy="40.86" r="10.66"/>
            <circle class="cls-1" cx="115.23" cy="95.93" r="8.88"/>
            <polygon class="cls-1" points="45.95 154.56 28.18 154.56 74.38 37.31 85.03 37.31 45.95 154.56"/>
            <polygon class="cls-1" points="120.56 97.71 109.91 97.71 77.93 40.86 85.03 40.86 120.56 97.71"/>
            <polygon class="cls-1" points="120.56 97.71 109.91 97.71 145.44 12.44 148.99 12.44 120.56 97.71"/>
            <polygon class="cls-1" points="166.75 51.52 166.75 51.52 145.44 12.44 152.54 12.44 166.75 51.52"/>
            <path class="cls-2"
                  d="M3.22,158.05q.54-5.43.81-9c.19-2.35.36-5.35.53-9S4.88,132.4,5,128s.23-9.57.31-15.42q5.1.09,8.16.09,2.79,0,8-.09-.68,8.41-1,14.79t-.38,13.5Q20,153.51,20,158.05c-3.1-.06-5.78-.08-8-.08S6.82,158,3.22,158.05Zm2.47-51.2q.22-5.3.23-8.37c0-.6,0-1.4,0-2.41q4.76.09,8,.09,4.44,0,7.77-.09c-.08.92-.13,1.69-.16,2.32l-.23,5.52c-.06.83-.08,1.81-.08,2.94q-3.88-.09-7.45-.09T5.69,106.85Z"
                  transform="translate(-3.22)"/>
            <path class="cls-2"
                  d="M72.35,125.53c.5-3,.81-5,1-6.09s.34-2.86.62-5.23a82,82,0,0,1,19.42-2.81,28.66,28.66,0,0,1,8.47,1.18,12.18,12.18,0,0,1,6,3.81Q110,119,110,123.92c0,1.66-.2,5.41-.59,11.23s-.69,13.46-.9,22.9c-2.56-.06-5.11-.08-7.65-.08s-5.07,0-7.85.08q.54-4.89,1.19-20.23c-1,.54-1.77.92-2.33,1.16s-1.55.6-3,1.07-2.51.88-3.31,1.2a7.71,7.71,0,0,0-2.07,1.25,4.69,4.69,0,0,0-1.25,1.56,4.18,4.18,0,0,0-.38,1.78,3.55,3.55,0,0,0,1.06,2.59,4.61,4.61,0,0,0,3.38,1.07,10.27,10.27,0,0,0,1.76-.16,14,14,0,0,0,2.59-.78q-1.14,3.44-2.71,10a35.73,35.73,0,0,1-6.39.62,18.94,18.94,0,0,1-8.1-1.53,10.71,10.71,0,0,1-5-5,15.09,15.09,0,0,1-1.74-6.87,13.35,13.35,0,0,1,.64-4.1,14.49,14.49,0,0,1,2-3.92,14.7,14.7,0,0,1,3.22-3.27,20.67,20.67,0,0,1,5-2.56,59.21,59.21,0,0,1,8.1-2.28c1.36-.29,2.61-.61,3.74-1a14.94,14.94,0,0,0,2.43-.9,3.78,3.78,0,0,0,1.18-.89,3.17,3.17,0,0,0,.65-1.07,3.52,3.52,0,0,0,.19-1.18,3,3,0,0,0-1.25-2.6A6.24,6.24,0,0,0,89,121.2Q82.28,121.2,72.35,125.53Z"
                  transform="translate(-3.22)"/>
            <path class="cls-2"
                  d="M120.43,163.58a55.75,55.75,0,0,0,8.91,2.74,34.24,34.24,0,0,0,6.7.78,13,13,0,0,0,3.77-.51,8.94,8.94,0,0,0,2.7-1.27,7.19,7.19,0,0,0,1.75-1.92,10,10,0,0,0,1.12-2.58,18,18,0,0,0,.54-3.3c.11-1.25.2-3,.28-5.17-1,1-1.9,1.87-2.65,2.5a15.7,15.7,0,0,1-2.76,1.8A15.38,15.38,0,0,1,137.2,158a17.58,17.58,0,0,1-4.1.47,16,16,0,0,1-9-2.63,15.83,15.83,0,0,1-6-7.36,26.26,26.26,0,0,1-2-10.2,30.84,30.84,0,0,1,2.11-11.68,24.19,24.19,0,0,1,6.06-8.82,21.8,21.8,0,0,1,8.64-5,37.85,37.85,0,0,1,10.66-1.38,70.58,70.58,0,0,1,7.73.47q4.33.47,11.9,2l-.93,14.71-.81,16.13c-.05,1.16-.08,2.11-.08,2.85l-.31,14.49a31.24,31.24,0,0,1-.58,5.25,15.41,15.41,0,0,1-1.46,4.24,13.76,13.76,0,0,1-2.5,3.43,13.22,13.22,0,0,1-3.69,2.54,23.29,23.29,0,0,1-4.9,1.6,31.62,31.62,0,0,1-6.39.63c-1.26,0-2.8-.07-4.63-.2s-3.71-.34-5.63-.61-3.58-.55-5-.84-3.17-.73-5.31-1.29l-.27-5.89Q120.79,169.24,120.43,163.58ZM147.34,125a20.28,20.28,0,0,0-4.35-.54,11.57,11.57,0,0,0-6.08,1.54,10.13,10.13,0,0,0-4,4.6,15,15,0,0,0-1.41,6.36,12.94,12.94,0,0,0,.75,4.47,6.46,6.46,0,0,0,2.46,3.24,6.38,6.38,0,0,0,3.64,1.18,6.7,6.7,0,0,0,5-2.32,12.76,12.76,0,0,0,3-6.34A72.35,72.35,0,0,0,147.34,125Z"
                  transform="translate(-3.22)"/>
            <path class="cls-2"
                  d="M209.06,144.6q-.51,2.67-2,12.92a70,70,0,0,1-7.65,1.36,59,59,0,0,1-6.27.33,46.8,46.8,0,0,1-8.59-.73,18.23,18.23,0,0,1-6.76-2.61,17,17,0,0,1-4.77-4.65,20.82,20.82,0,0,1-2.92-6.61,30.89,30.89,0,0,1-1-7.88,32.19,32.19,0,0,1,2-11.15,22.4,22.4,0,0,1,5.16-8.53,18.11,18.11,0,0,1,7.27-4.36A28.08,28.08,0,0,1,192,111.4a30.26,30.26,0,0,1,8.53,1.18,15.34,15.34,0,0,1,6.89,4.12,17.2,17.2,0,0,1,4,6.64,26.05,26.05,0,0,1,1.19,8,35.4,35.4,0,0,1-.51,5.66l-27.49,0c0,.47,0,.9,0,1.29,0,3.19,1,5.55,3,7.05a11.93,11.93,0,0,0,7.37,2.27,29.36,29.36,0,0,0,5.91-.69A71.88,71.88,0,0,0,209.06,144.6Zm-24.12-14.4h12.95c0-.5,0-.93,0-1.29a9.82,9.82,0,0,0-.73-4,4.88,4.88,0,0,0-2.08-2.41,6,6,0,0,0-3-.76,6.15,6.15,0,0,0-4.25,1.67,7.39,7.39,0,0,0-1.47,1.9,9.46,9.46,0,0,0-.87,2.07C185.31,128.09,185.13,129,184.94,130.2Z"
                  transform="translate(-3.22)"/>
            <path class="cls-2"
                  d="M217.46,157.21c-.11-1.31-.21-2.68-.32-4.12s-.27-3.43-.51-6l-.31-3.21a56.76,56.76,0,0,0,6.53,2.52,17.62,17.62,0,0,0,5.05.82,9.91,9.91,0,0,0,3.11-.4,3.35,3.35,0,0,0,1.74-1.16,2.58,2.58,0,0,0,.55-1.56,2.75,2.75,0,0,0-.41-1.4,9.41,9.41,0,0,0-1.86-1.9q-3.21-2.67-5.65-4.85a26.17,26.17,0,0,1-3.68-3.88,13.28,13.28,0,0,1-1.87-3.65,12.92,12.92,0,0,1-.65-4.06A13.57,13.57,0,0,1,221,117.5a10.77,10.77,0,0,1,5.49-4.65,23.84,23.84,0,0,1,8.85-1.45A77.76,77.76,0,0,1,249.3,113l.63,12.48a22.17,22.17,0,0,0-9.14-2.14,10.17,10.17,0,0,0-4.49.73,2.34,2.34,0,0,0-1.39,2.21,2.94,2.94,0,0,0,.15.94,3.16,3.16,0,0,0,.57.93,8.88,8.88,0,0,0,1,1c.41.34,1.39,1.13,3,2.38s2.8,2.27,3.69,3.08a21,21,0,0,1,3.35,3.63,13.61,13.61,0,0,1,1.77,3.56,13.16,13.16,0,0,1,.6,4,12.65,12.65,0,0,1-1.35,5.82,11.57,11.57,0,0,1-4.08,4.43,17.34,17.34,0,0,1-5.9,2.47,30.78,30.78,0,0,1-6.55.69,46.93,46.93,0,0,1-5.7-.44A75.66,75.66,0,0,1,217.46,157.21Z"
                  transform="translate(-3.22)"/>
            <path class="cls-3" d="M174.8,67.57l-1,18.63c-.19,4-.4,9.49-.66,16.41H162.55l-1.71-35Z"
                  transform="translate(-3.22)"/>
            <path class="cls-3"
                  d="M218.36,81.92a15.1,15.1,0,0,0-2.83-.39,3.55,3.55,0,0,0-2.17.73,2.74,2.74,0,0,0-1.18,2.3q0,1.09,2.17,4.22a10.31,10.31,0,0,1,2.17,5.75,7.51,7.51,0,0,1-3.21,6.25,12,12,0,0,1-7.55,2.35,25.77,25.77,0,0,1-6.1-.52c-.16-.7-.42-1.84-.79-3.42-.23-.86-.56-2-1-3.4a21.37,21.37,0,0,0,3.73.61q3.76,0,3.77-2.57a4.6,4.6,0,0,0-1.52-3.36c-1.65-1.31-3.3-2.62-5-4q-4.78-3.83-4.79-9.1a9.18,9.18,0,0,1,4.54-8.32q4-2.47,10.55-2.47a41.16,41.16,0,0,1,8.38,1Z"
                  transform="translate(-3.22)"/>
        </g>
    </g>
</svg>
